<svg xmlns="http://www.w3.org/2000/svg" viewBox="0 0 207.23 212.26"><defs><style>.cls-1{fill:#fac136;}.cls-2{fill:#282425;}</style></defs><g id="Layer_2" data-name="Layer 2"><g id="Layer_1-2" data-name="Layer 1"><rect class="cls-1" width="207.23" height="212.26" rx="103.61"/><path class="cls-2" d="M143.3,87.85a59.15,59.15,0,1,0-30.5,77.82A59.11,59.11,0,0,0,143.3,87.85Zm-86,40.84A13,13,0,0,1,49,104.18a13.81,13.81,0,0,1,2.08-.71A13,13,0,0,1,59.4,128,13.28,13.28,0,0,1,57.33,128.69ZM87.58,158a13.44,13.44,0,0,1-2.08.71,13,13,0,0,1-8.32-24.52,13.44,13.44,0,0,1,2.08-.71A13,13,0,0,1,87.58,158Zm4-40.86a6.1,6.1,0,0,1-1,.34,6.19,6.19,0,0,1-4-11.68,5.79,5.79,0,0,1,1-.34,6.19,6.19,0,0,1,4,11.68Zm-11-25.12a13.39,13.39,0,0,1-2.08.7,13,13,0,0,1-8.32-24.51,13.81,13.81,0,0,1,2.08-.71,13,13,0,0,1,8.32,24.52ZM124.33,142a13.44,13.44,0,0,1-2.08.71,13,13,0,0,1-8.32-24.52,13.39,13.39,0,0,1,2.08-.7A13,13,0,0,1,124.33,142Zm-2.91-41.09a13.44,13.44,0,0,1-2.08.71A13,13,0,0,1,111,77.08a12.41,12.41,0,0,1,2.08-.7,13,13,0,0,1,8.32,24.51Z"/><path class="cls-2" d="M158.81,54.47c-1.7.21-15,1.69-26.94-5-3.06-1.72-7.61-4.88-15.05-6.73a33.54,33.54,0,0,0-5.51-1c-6.34-.5-12.26,1.66-17.49,4.92a.58.58,0,0,0,.26,1.07,64.09,64.09,0,0,1,36.14,14.75c2.51,2.1,4.55,4.66,7,6.8,5.15,4.54,9.6,7.3,19,8.27a34.34,34.34,0,0,0,20.78-4.7.57.57,0,0,0,.29-.5v-24a.59.59,0,0,0-.9-.49A40.5,40.5,0,0,1,158.81,54.47Z"/></g></g></svg>